<svg xmlns="http://www.w3.org/2000/svg" version="1.1" xmlns:xlink="http://www.w3.org/1999/xlink" xmlns:svgjs="http://svgjs.com/svgjs" width="512" height="512" x="0" y="0" viewBox="0 0 48 48" style="enable-background:new 0 0 512 512" xml:space="preserve" class=""><g><g xmlns="http://www.w3.org/2000/svg"><g><g><path d="m29.7 43h-11.4c-.6 0-1-.4-1-1v-5.6c0-4.2-1.6-8.5-4.5-11.9-2.6-3.1-3.7-6.9-3.3-10.9.7-7.1 6.6-12.7 13.8-13.1 8.4-.5 15.5 6.3 15.5 14.6 0 3.4-1.2 6.7-3.4 9.3-3 3.6-4.6 7.9-4.6 12.2v5.4c-.1.6-.5 1-1.1 1zm-10.4-2h9.4v-4.4c0-4.7 1.8-9.5 5-13.5 1.9-2.3 2.9-5.1 2.9-8 0-7.2-6.1-13-13.4-12.6-6.1.4-11.2 5.2-11.8 11.3-.4 3.4.7 6.8 2.9 9.4 3.2 3.9 5 8.6 5 13.2z" fill="#ffffff" data-original="#000000" class=""></path></g><g><path d="m24 47.5c-3 0-5.5-2.4-5.6-5.4v-1h11.2v1c-.1 3-2.6 5.4-5.6 5.4zm-3.4-4.5c.5 1.4 1.8 2.5 3.4 2.5s2.9-1 3.4-2.5z" fill="#ffffff" data-original="#000000" class=""></path></g><g><g><path d="m17.7 32.2h12.5v2h-12.5z" fill="#ffffff" data-original="#000000" class=""></path></g><g><path d="m18.2 36.5h11.7v2h-11.7z" fill="#ffffff" data-original="#000000" class=""></path></g></g></g><g><g><path d="m29.7 43h-11.4c-.6 0-1-.4-1-1v-5.6c0-4.2-1.6-8.5-4.5-11.9-2.6-3.1-3.7-6.9-3.3-10.9.7-7.1 6.6-12.7 13.8-13.1 8.4-.5 15.5 6.3 15.5 14.6 0 3.4-1.2 6.7-3.4 9.3-3 3.6-4.6 7.9-4.6 12.2v5.4c-.1.6-.5 1-1.1 1zm-10.4-2h9.4v-4.4c0-4.7 1.8-9.5 5-13.5 1.9-2.3 2.9-5.1 2.9-8 0-7.2-6.1-13-13.4-12.6-6.1.4-11.2 5.2-11.8 11.3-.4 3.4.7 6.8 2.9 9.4 3.2 3.9 5 8.6 5 13.2z" fill="#ffffff" data-original="#000000" class=""></path></g><g><path d="m24 47.5c-3 0-5.5-2.4-5.6-5.4v-1h11.2v1c-.1 3-2.6 5.4-5.6 5.4zm-3.4-4.5c.5 1.4 1.8 2.5 3.4 2.5s2.9-1 3.4-2.5z" fill="#ffffff" data-original="#000000" class=""></path></g><g><g><path d="m17.7 32.2h12.5v2h-12.5z" fill="#ffffff" data-original="#000000" class=""></path></g><g><path d="m18.2 36.5h11.7v2h-11.7z" fill="#ffffff" data-original="#000000" class=""></path></g></g></g></g></g></svg>