<svg xmlns="http://www.w3.org/2000/svg" version="1.1" xmlns:xlink="http://www.w3.org/1999/xlink" xmlns:svgjs="http://svgjs.com/svgjs" width="512" height="512" x="0" y="0" viewBox="0 0 512 512" style="enable-background:new 0 0 512 512" xml:space="preserve" class=""><g><g xmlns="http://www.w3.org/2000/svg"><path d="m467 121h-15v-15c0-24.813-20.187-45-45-45h-332c-24.813 0-45 20.187-45 45v255h-15c-8.284 0-15 6.716-15 15v30c0 24.813 20.187 45 45 45h422c24.813 0 45-20.187 45-45v-240c0-24.813-20.187-45-45-45zm-407-15c0-8.271 6.729-15 15-15h332c8.271 0 15 6.729 15 15v15h-75c-24.813 0-45 20.187-45 45v195h-242zm-30 300v-15h272v15c0 5.258.915 10.305 2.58 15h-259.58c-8.271 0-15-6.729-15-15zm452 0c0 8.271-6.729 15-15 15h-120c-8.271 0-15-6.729-15-15v-240c0-8.271 6.729-15 15-15h120c8.271 0 15 6.729 15 15z" fill="#ffffff" data-original="#000000" class=""></path><path d="m422 361h-30c-8.284 0-15 6.716-15 15s6.716 15 15 15h30c8.284 0 15-6.716 15-15s-6.716-15-15-15z" fill="#ffffff" data-original="#ffffff" class=""></path><circle cx="407" cy="196" r="15" fill="#ffffff" data-original="#000000" class=""></circle></g></g></svg>